<svg width="38" height="38" viewBox="0 0 38 38" fill="none" xmlns="http://www.w3.org/2000/svg">
<g clip-path="url(#clip0_906_243)">
<path d="M17.2431 16.465C17.2602 16.4051 17.2774 16.3408 17.5216 16.3408C18.2798 16.3408 18.4253 16.8676 18.4253 17.3003C18.4253 17.5615 18.284 18.8808 16.9347 18.8808C16.7335 18.8808 16.6306 18.8551 16.6306 18.7138C16.6306 18.6452 16.6863 18.4567 16.7248 18.3154L17.2431 16.465V16.465ZM16.4594 16.2807C16.6779 16.2978 16.7893 16.3193 16.7893 16.465C16.7893 16.5508 16.755 16.6834 16.7421 16.7306L16.2154 18.6239C16.1426 18.8894 16.0784 18.9023 15.8684 18.9407V19.0093H16.9521C18.2114 19.0093 18.901 18.2168 18.901 17.3517C18.901 16.9021 18.6355 16.2123 17.6504 16.2123H16.4596V16.2807H16.4594ZM19.7874 18.5681C19.6204 18.8208 19.4319 19.0564 19.192 19.0564C18.9907 19.0564 18.9907 18.868 18.9907 18.7909C18.9907 18.5896 19.329 17.5272 19.329 17.4073C19.329 17.3174 19.2947 17.296 19.0591 17.296V17.2274C19.222 17.2189 19.5774 17.1503 19.7444 17.1203L19.7572 17.1288L19.3803 18.508C19.3631 18.5679 19.3117 18.7392 19.3117 18.7907C19.3117 18.8206 19.3416 18.8549 19.3803 18.8549C19.4317 18.8549 19.5559 18.7692 19.7316 18.5208L19.7874 18.5681V18.5681ZM19.7018 16.662C19.5948 16.662 19.4962 16.589 19.4962 16.4392C19.4962 16.2894 19.5948 16.2079 19.6975 16.2079C19.8388 16.2079 19.9116 16.3493 19.9116 16.4435C19.9116 16.5291 19.843 16.662 19.7018 16.662V16.662ZM21.7877 18.5638C21.5737 18.8508 21.4236 19.0477 21.1924 19.0477C20.9952 19.0477 20.9868 18.9192 20.9868 18.795C20.9868 18.6923 21.3038 17.6471 21.3038 17.4757C21.3038 17.3987 21.2781 17.3387 21.1967 17.3387C20.9911 17.3387 20.7212 17.7072 20.5671 17.9469C20.3701 18.2424 20.3143 18.4268 20.1389 19.0091H19.8177C19.9504 18.5251 20.2374 17.5229 20.2374 17.4328C20.2374 17.3685 20.1947 17.3214 19.9634 17.3214V17.2528C20.1947 17.21 20.4259 17.1672 20.6573 17.1201L20.6702 17.1286L20.3959 18.0238L20.4044 18.0323C20.6057 17.7153 20.9998 17.1199 21.3552 17.1199C21.5524 17.1199 21.6507 17.2226 21.6507 17.4026C21.6507 17.5867 21.3081 18.6448 21.3081 18.7733C21.3081 18.8376 21.368 18.8463 21.3767 18.8463C21.4625 18.8463 21.5695 18.7093 21.728 18.5078L21.7877 18.5638V18.5638ZM22.336 17.9298C22.4945 17.5485 22.7857 17.2189 23.0171 17.2189C23.1242 17.2189 23.1669 17.3003 23.1669 17.3902C23.1669 17.4245 23.1457 17.9384 22.2633 18.1184L22.336 17.9298V17.9298ZM23.2182 18.5423C23.0041 18.7179 22.8241 18.8636 22.5929 18.8636C22.4129 18.8636 22.1903 18.765 22.1903 18.4737C22.1903 18.3879 22.2118 18.3024 22.2331 18.2125L22.3529 18.1953C23.0469 18.0967 23.4494 17.7498 23.4494 17.4115C23.4494 17.223 23.3166 17.1201 23.0981 17.1201C22.4943 17.1201 21.8175 17.8397 21.8175 18.4522C21.8175 18.7221 21.9545 19.056 22.4044 19.056C22.8328 19.056 23.2225 18.6619 23.2697 18.5933L23.2182 18.5423V18.5423ZM23.4796 19.0091L23.8266 17.7584C23.8694 17.5999 23.895 17.4545 23.895 17.4158C23.895 17.3559 23.8737 17.2875 23.7408 17.2875C23.6937 17.2875 23.6466 17.3003 23.5995 17.3088V17.236C23.8179 17.2061 24.0706 17.1503 24.2634 17.1203L24.2763 17.1288L24.0665 17.9812L24.075 17.9897L24.1093 17.9039C24.2506 17.6212 24.5763 17.1201 24.846 17.1201C24.9446 17.1201 25.0516 17.1844 25.0516 17.3299C25.0516 17.5526 24.8974 17.5526 24.8503 17.5526C24.6662 17.5526 24.7305 17.3985 24.6276 17.3985C24.4949 17.3985 24.2378 17.874 24.2035 17.9382C24.0407 18.2466 23.9807 18.4394 23.8051 19.0091H23.4796V19.0091ZM24.833 18.3838C24.8629 18.5722 24.9315 18.9663 25.2785 18.9663C25.5182 18.9663 25.5868 18.7607 25.5868 18.6194C25.5868 18.3367 25.0772 17.9254 25.0772 17.5956C25.0772 17.4629 25.1372 17.1201 25.5912 17.1201C25.784 17.1201 25.8695 17.193 25.9981 17.193C26.071 17.193 26.0966 17.1503 26.1179 17.1158H26.1779L26.0921 17.7113H26.0235C26.0022 17.4671 25.8993 17.2187 25.6209 17.2187C25.5267 17.2187 25.3897 17.2571 25.3897 17.4671C25.3897 17.737 25.9121 18.1182 25.9121 18.4822C25.9121 18.949 25.5137 19.0562 25.274 19.0562C25.1454 19.0562 24.9741 18.9748 24.8499 18.9748C24.79 18.9748 24.7728 19.0176 24.7472 19.0649H24.6786L24.7644 18.3838H24.833V18.3838ZM29.7203 17.0046C29.7118 16.8847 29.6732 16.3106 29.0607 16.3106C28.2041 16.3106 27.767 17.3472 27.767 17.9769C27.767 18.5381 28.0026 18.8936 28.5124 18.8936C28.9964 18.8936 29.2962 18.5894 29.5019 18.3881L29.5746 18.448C29.4161 18.6365 29.0348 19.0862 28.4095 19.0862C27.9125 19.0862 27.2874 18.7863 27.2874 17.9298C27.2874 17.1032 28.0454 16.1565 29.0263 16.1565C29.3347 16.1565 29.5961 16.2592 29.6945 16.2592C29.8187 16.2592 29.8443 16.2077 29.8658 16.165H29.9557L29.7972 17.0174L29.7203 17.0046ZM30.5083 18.5208C30.2898 18.8506 30.1226 19.0562 29.8571 19.0562C29.6686 19.0562 29.6515 18.9105 29.6515 18.7907C29.6515 18.7006 30.2727 16.4648 30.2727 16.3749C30.2727 16.2637 30.0927 16.2637 29.9813 16.2679V16.1993C30.2041 16.1736 30.4268 16.135 30.6494 16.0837L30.6709 16.105L30.0241 18.5851C30.0156 18.6237 29.9813 18.7392 29.9813 18.7863C29.9813 18.812 29.9813 18.8721 30.0456 18.8721C30.1526 18.8721 30.2427 18.7522 30.4525 18.4822L30.5083 18.5208V18.5208ZM32.4872 18.5466C32.2173 18.9364 32.1059 19.0477 31.8918 19.0477C31.699 19.0477 31.6905 18.8892 31.6905 18.825C31.6905 18.7479 31.7763 18.3881 31.8746 18.0368H31.8618C31.5704 18.5208 31.2536 19.0562 30.868 19.0562C30.7139 19.0562 30.6325 18.992 30.6325 18.8035C30.6325 18.615 30.9579 17.5355 30.9579 17.42C30.9579 17.2958 30.8765 17.2958 30.7011 17.2958V17.236C30.9173 17.2099 31.1318 17.1712 31.3435 17.1203L31.3564 17.1288L30.9664 18.6836C30.9536 18.7392 30.9664 18.8291 31.0565 18.8291C31.2406 18.8291 31.5105 18.4266 31.6562 18.2038C31.8662 17.8868 31.9604 17.6169 32.1274 17.1586H32.4444L32.1061 18.4394C32.0804 18.5251 32.0247 18.7136 32.0247 18.7779C32.0247 18.7992 32.0288 18.8465 32.0761 18.8465C32.1575 18.8465 32.2774 18.6964 32.4274 18.508L32.4872 18.5466V18.5466ZM34.042 17.6942C34.042 18.054 33.6351 18.9579 33.0482 18.9579C32.8469 18.9579 32.8469 18.8465 32.8469 18.8165C32.8469 18.3668 33.2582 17.3301 33.7293 17.3301C33.9992 17.3301 34.042 17.5615 34.042 17.6942V17.6942ZM32.8513 16.2551C33.0997 16.2594 33.1296 16.2807 33.1296 16.3793C33.1296 16.4392 33.0912 16.5462 33.0612 16.6663L32.4787 18.8122V18.8293C32.4787 18.9235 32.8085 19.0564 33.0356 19.0564C33.6909 19.0564 34.4061 18.3154 34.4061 17.6386C34.4061 17.3259 34.1964 17.1203 33.8965 17.1203C33.5111 17.1203 33.2412 17.5187 33.0999 17.7413L33.0914 17.7372C33.2371 17.253 33.434 16.4563 33.5282 16.1052L33.507 16.0839C33.2842 16.1267 33.0658 16.1567 32.8517 16.1825V16.2551H32.8513ZM15.8698 22.2783C16.0797 22.2396 16.144 22.2268 16.2168 21.9613L16.7435 20.0679C16.7691 19.9822 16.7906 19.8795 16.7906 19.8024C16.7906 19.6526 16.6751 19.6398 16.4908 19.6183V19.5497H17.5488V19.6183C17.3391 19.6569 17.2705 19.6654 17.1975 19.9353L16.6708 21.8328C16.6451 21.9185 16.6237 22.0041 16.6237 22.107C16.6237 22.244 16.7307 22.257 16.915 22.2783V22.3469H15.8698V22.2783V22.2783Z" fill="white"/>
<path d="M18.9751 21.9013C18.7608 22.1883 18.6109 22.3855 18.3795 22.3855C18.1826 22.3855 18.1739 22.2569 18.1739 22.1327C18.1739 22.03 18.4909 20.9848 18.4909 20.8135C18.4909 20.7364 18.4653 20.6765 18.3838 20.6765C18.1782 20.6765 17.9083 21.0449 17.7542 21.2846C17.557 21.5802 17.5014 21.7643 17.3258 22.3468H17.0046C17.1373 21.8629 17.4244 20.8604 17.4244 20.7705C17.4244 20.7062 17.3816 20.6591 17.1503 20.6591V20.5905C17.3816 20.5477 17.6128 20.5048 17.8443 20.4576L17.8571 20.4663L17.583 21.3615L17.5915 21.3702C17.7928 21.0532 18.1869 20.4578 18.5423 20.4578C18.7395 20.4578 18.838 20.5607 18.838 20.7407C18.838 20.9249 18.4954 21.9829 18.4954 22.1115C18.4954 22.1757 18.5553 22.1842 18.564 22.1842C18.6498 22.1842 18.7568 22.0472 18.9151 21.8459L18.9751 21.9013V21.9013ZM20.1187 20.6504H19.7589L19.382 22.0768C19.3776 22.0896 19.3776 22.098 19.3776 22.1111C19.3776 22.1495 19.3989 22.1838 19.4462 22.1838C19.532 22.1838 19.6818 21.9825 19.7889 21.8455L19.8444 21.8755C19.626 22.2053 19.459 22.3938 19.2363 22.3938C19.1505 22.3938 19.0306 22.351 19.0306 22.2224C19.0306 22.1582 19.1121 21.897 19.1292 21.8284L19.4375 20.6504H19.1205C19.1164 20.6248 19.1164 20.6033 19.1292 20.5818C19.1548 20.5432 19.2747 20.5132 19.3477 20.4748C19.489 20.4018 19.6946 20.2092 19.8145 20.0592C19.8316 20.0379 19.8488 19.9993 19.8872 20.008C19.9172 19.9993 19.9259 20.0379 19.9172 20.0722L19.7973 20.5134H20.14L20.1187 20.6504V20.6504ZM20.4997 21.2673C20.6582 20.886 20.9496 20.5562 21.1809 20.5562C21.2879 20.5562 21.3309 20.6376 21.3309 20.7275C21.3309 20.7618 21.3094 21.2758 20.4272 21.4558L20.4997 21.2673V21.2673ZM21.3821 21.8798C21.168 22.0555 20.9881 22.201 20.7568 22.201C20.5768 22.201 20.3543 22.1024 20.3543 21.8112C20.3543 21.7254 20.3755 21.6399 20.397 21.55L20.5169 21.5328C21.2108 21.4343 21.6134 21.0873 21.6134 20.7488C21.6134 20.5603 21.4805 20.4574 21.2621 20.4574C20.6582 20.4574 19.9813 21.177 19.9813 21.7895C19.9813 22.0594 20.1183 22.3934 20.5681 22.3934C20.9965 22.3934 21.3863 21.9993 21.4334 21.9309L21.3821 21.8798ZM21.7291 22.3466L22.0761 21.096C22.1189 20.9375 22.1447 20.7918 22.1447 20.7534C22.1447 20.6934 22.1232 20.6248 21.9905 20.6248C21.9434 20.6248 21.8963 20.6376 21.8492 20.6463V20.5734C22.0676 20.5434 22.3203 20.4876 22.5131 20.4576L22.5259 20.4663L22.3162 21.3187L22.3247 21.3272L22.359 21.2415C22.5003 20.9588 22.8258 20.4574 23.0957 20.4574C23.1943 20.4574 23.3013 20.5217 23.3013 20.6674C23.3013 20.8902 23.1471 20.8902 23.1 20.8902C22.9159 20.8902 22.9802 20.736 22.8775 20.736C22.7446 20.736 22.4875 21.2115 22.4534 21.2758C22.2906 21.5841 22.2306 21.7769 22.055 22.3466H21.7291V22.3466Z" fill="white"/>
<path d="M25.0188 21.9013C24.8047 22.1883 24.6547 22.3855 24.4234 22.3855C24.2263 22.3855 24.2178 22.2569 24.2178 22.1327C24.2178 22.03 24.5348 20.9848 24.5348 20.8135C24.5348 20.7364 24.5092 20.6765 24.4278 20.6765C24.2224 20.6765 23.9523 21.0449 23.7981 21.2846C23.6012 21.5802 23.5454 21.7643 23.3697 22.3468H23.0486C23.1815 21.8629 23.4683 20.8604 23.4683 20.7705C23.4683 20.7062 23.4255 20.6591 23.1941 20.6591V20.5905C23.4253 20.5477 23.6568 20.5048 23.888 20.4576L23.9008 20.4663L23.6266 21.3615L23.6351 21.3702C23.8364 21.0532 24.2304 20.4578 24.5861 20.4578C24.7832 20.4578 24.8816 20.5607 24.8816 20.7407C24.8816 20.9249 24.539 21.9829 24.539 22.1115C24.539 22.1757 24.5989 22.1842 24.6076 22.1842C24.6933 22.1842 24.8004 22.0472 24.9589 21.8459L25.0188 21.9013V21.9013Z" fill="white"/>
<path d="M25.3484 21.8799C25.3484 21.4943 25.734 20.5521 26.2351 20.5521C26.3593 20.5521 26.4794 20.6336 26.4794 20.8392C26.4794 21.2589 26.0597 22.1841 25.6055 22.1841C25.4897 22.1841 25.3484 22.107 25.3484 21.8799ZM26.9032 21.8755C26.7104 22.064 26.6247 22.1712 26.5606 22.1712C26.5263 22.1712 26.5007 22.1456 26.5007 22.1155C26.5007 21.9828 26.8948 20.522 26.9076 20.4707L26.8776 20.4579L26.6164 20.4879L26.6036 20.5007L26.5608 20.6893H26.5523C26.5395 20.5693 26.3982 20.4579 26.214 20.4579C25.6443 20.4579 24.989 21.2589 24.989 21.8885C24.989 22.0127 25.0018 22.3938 25.4302 22.3938C25.6873 22.3938 25.9142 22.2653 26.2696 21.7429L26.2781 21.7513C26.2095 22.0125 26.1882 22.1068 26.1882 22.2054C26.1882 22.2781 26.1882 22.3895 26.3682 22.3895C26.5523 22.3895 26.698 22.2353 26.9551 21.9183L26.9032 21.8755V21.8755ZM28.1754 20.6505H27.8156L27.4387 22.0768C27.4343 22.0896 27.4343 22.0981 27.4343 22.1111C27.4343 22.1496 27.4558 22.1839 27.5029 22.1839C27.5887 22.1839 27.7385 21.9826 27.8456 21.8456L27.9012 21.8755C27.6827 22.2054 27.5158 22.3938 27.293 22.3938C27.2072 22.3938 27.0874 22.351 27.0874 22.2225C27.0874 22.1582 27.1688 21.897 27.1859 21.8284L27.4943 20.6505H27.1773C27.1731 20.6249 27.1731 20.6034 27.1859 20.5819C27.2116 20.5433 27.3314 20.5133 27.4044 20.4749C27.5457 20.4019 27.7513 20.2093 27.8712 20.0593C27.8884 20.038 27.9055 19.9993 27.9441 20.008C27.9741 19.9993 27.9826 20.038 27.9741 20.0723L27.8543 20.5135H28.1969L28.1754 20.6505ZM28.9979 21.9057C28.8307 22.1584 28.6424 22.394 28.4025 22.394C28.2012 22.394 28.2012 22.2055 28.2012 22.1285C28.2012 21.9272 28.5395 20.865 28.5395 20.7449C28.5395 20.6548 28.5052 20.6336 28.2696 20.6336V20.5649C28.4323 20.5565 28.7877 20.4879 28.9549 20.4579L28.9677 20.4666L28.5908 21.8458C28.5736 21.9057 28.5222 22.077 28.5222 22.1285C28.5222 22.1584 28.5521 22.1927 28.5908 22.1927C28.6422 22.1927 28.7664 22.107 28.9419 21.8586L28.9979 21.9057ZM28.9121 19.9995C28.8051 19.9995 28.7065 19.9268 28.7065 19.7768C28.7065 19.627 28.8051 19.5455 28.9078 19.5455C29.0491 19.5455 29.1219 19.6869 29.1219 19.7811C29.1221 19.8667 29.0535 19.9995 28.9121 19.9995ZM30.3985 20.5478C30.604 20.5478 30.6984 20.7363 30.6984 20.959C30.6984 21.4174 30.3601 22.3039 29.8718 22.3039C29.6577 22.3039 29.5292 22.1498 29.5292 21.9055C29.529 21.4002 29.9187 20.5478 30.3985 20.5478V20.5478ZM30.4285 20.4577C29.8032 20.4577 29.1692 21.1475 29.1692 21.777C29.1692 22.1324 29.362 22.3936 29.816 22.3936C30.4713 22.3936 31.0582 21.6185 31.0582 21.0915C31.058 20.809 30.9253 20.4577 30.4285 20.4577V20.4577Z" fill="white"/>
<path d="M32.9258 21.9013C32.7117 22.1884 32.5617 22.3855 32.3304 22.3855C32.1333 22.3855 32.1248 22.257 32.1248 22.1328C32.1248 22.0301 32.4418 20.9848 32.4418 20.8135C32.4418 20.7364 32.4162 20.6765 32.3348 20.6765C32.1291 20.6765 31.8593 21.045 31.7051 21.2847C31.508 21.5802 31.4524 21.7643 31.2767 22.3469H30.9556C31.0884 21.8629 31.3753 20.8604 31.3753 20.7705C31.3753 20.7063 31.3325 20.6592 31.1011 20.6592V20.5906C31.3323 20.5478 31.5637 20.5048 31.795 20.4577L31.8078 20.4664L31.5336 21.3616L31.5421 21.3702C31.7433 21.0532 32.1374 20.4579 32.4931 20.4579C32.6902 20.4579 32.7886 20.5608 32.7886 20.7408C32.7886 20.9249 32.4459 21.983 32.4459 22.1115C32.4459 22.1758 32.5059 22.1842 32.5146 22.1842C32.6003 22.1842 32.7074 22.0472 32.8659 21.8459L32.9258 21.9013V21.9013ZM33.3412 21.8799C33.3412 21.4943 33.7268 20.5521 34.2279 20.5521C34.3521 20.5521 34.472 20.6335 34.472 20.8392C34.472 21.2589 34.0522 22.184 33.5982 22.184C33.4825 22.184 33.3412 22.107 33.3412 21.8799ZM34.896 21.8755C34.7032 22.064 34.6174 22.1712 34.5534 22.1712C34.5191 22.1712 34.4934 22.1456 34.4934 22.1154C34.4934 21.9828 34.8875 20.522 34.9003 20.4707L34.8704 20.4579L34.609 20.4878L34.5962 20.5007L34.5534 20.6893H34.5449C34.5321 20.5693 34.3907 20.4579 34.2066 20.4579C33.6369 20.4579 32.9816 21.2589 32.9816 21.8885C32.9816 22.0127 32.9944 22.3938 33.4228 22.3938C33.6797 22.3938 33.9068 22.2653 34.2622 21.7428L34.2707 21.7513C34.2021 22.0125 34.1808 22.1068 34.1808 22.2053C34.1808 22.2781 34.1808 22.3895 34.3606 22.3895C34.5449 22.3895 34.6904 22.2353 34.9475 21.9183L34.896 21.8755V21.8755ZM35.8683 21.8584C35.6499 22.1882 35.4829 22.3938 35.2174 22.3938C35.0289 22.3938 35.0117 22.2483 35.0117 22.1283C35.0117 22.0384 35.6327 19.8024 35.6327 19.7125C35.6327 19.6011 35.4527 19.6011 35.3414 19.6054V19.5368C35.5661 19.5108 35.7892 19.4722 36.0097 19.4211L36.0309 19.4426L35.3841 21.9226C35.3757 21.9611 35.3414 22.0768 35.3414 22.1239C35.3414 22.1495 35.3413 22.2097 35.4056 22.2097C35.5127 22.2097 35.6026 22.0898 35.8125 21.8199L35.8683 21.8584V21.8584ZM36.469 19.5177H36.513C36.5538 19.5177 36.5869 19.538 36.5869 19.5991C36.5869 19.6559 36.5666 19.6965 36.5139 19.6965H36.469V19.5177ZM36.3491 19.5134C36.4016 19.5187 36.4006 19.5177 36.4006 19.5648V19.8207C36.4006 19.8667 36.4016 19.8667 36.3491 19.8722V19.8881H36.5204V19.8722C36.467 19.8669 36.469 19.8669 36.469 19.8207V19.7158H36.5193C36.5867 19.8154 36.6135 19.8881 36.6478 19.8881H36.7152V19.8785C36.6947 19.8635 36.6628 19.8272 36.635 19.7886L36.5739 19.705C36.6222 19.689 36.6584 19.6482 36.6584 19.5938C36.6584 19.5274 36.5995 19.4974 36.5364 19.4974H36.3489V19.5134H36.3491ZM36.8824 19.6987C36.8824 19.4962 36.7251 19.3314 36.5214 19.3314C36.4733 19.3313 36.4256 19.3407 36.3811 19.3592C36.3366 19.3776 36.2962 19.4047 36.2622 19.4388C36.2282 19.473 36.2014 19.5135 36.1832 19.5582C36.1651 19.6028 36.1559 19.6505 36.1563 19.6987C36.1563 19.901 36.316 20.0638 36.5214 20.0638C36.7251 20.0638 36.8824 19.901 36.8824 19.6987ZM36.8235 19.6987C36.8235 19.8688 36.6896 20.0189 36.5214 20.0189C36.3501 20.0189 36.2153 19.8688 36.2153 19.6987C36.2153 19.5284 36.3491 19.3764 36.5214 19.3764C36.6908 19.3764 36.8235 19.5274 36.8235 19.6987Z" fill="white"/>
<path d="M10.5479 23.4757C12.9981 23.4877 15.0074 21.4782 14.9903 19.0333C15.0072 16.5215 12.9981 14.5123 10.5479 14.5131H5.63811C3.15847 14.5125 1.14922 16.5215 1.11768 19.0333C1.14922 21.4782 3.15847 23.4875 5.63791 23.4757H10.5479Z" fill="white"/>
<path d="M1.42944 19.0333C1.45389 16.6899 3.32653 14.8171 5.638 14.825C7.94691 14.8171 9.81974 16.6899 9.84635 19.0335C9.81974 21.3103 7.94691 23.1831 5.638 23.164C3.32653 23.1831 1.45389 21.3101 1.42944 19.0333V19.0333Z" fill="#9E9E9E"/>
<path d="M4.70257 16.5394C3.73402 16.9765 3.00736 17.9109 2.98804 19.0333C3.00736 20.1134 3.69932 21.0648 4.70257 21.4492V16.5394ZM6.57304 21.4494C7.57392 21.065 8.26568 20.1134 8.28757 19.0335C8.26568 17.8869 7.57372 16.9353 6.57304 16.5396V21.4494Z" fill="white"/>
</g>
<defs>
<clipPath id="clip0_906_243">
<rect width="38" height="38" fill="white"/>
</clipPath>
</defs>
</svg>
