<svg width="54" height="24" viewBox="0 0 54 24" fill="none" xmlns="http://www.w3.org/2000/svg">
<path d="M11.1302 7.35186C11.6497 7.18892 12.204 7.10202 12.7789 7.10202C15.296 7.10202 17.3973 8.78356 17.8776 11.0191L21.4453 10.3348C20.6279 6.53716 17.0579 3.6781 12.7789 3.6781C11.7975 3.6781 10.8577 3.82801 9.97559 4.10609L11.1302 7.35186Z" fill="#9E9E9E"/>
<path d="M6.92024 18.2276L9.33334 15.6619C8.25726 14.7646 7.57836 13.4546 7.57836 11.9946C7.57836 10.5369 8.25726 9.22682 9.33334 8.33173L6.92024 5.76379C5.09136 7.28891 3.93677 9.51576 3.93677 11.9946C3.93677 14.4757 5.09136 16.7025 6.92024 18.2276" fill="#9E9E9E"/>
<path d="M17.8776 12.9766C17.395 15.2099 15.296 16.8893 12.7812 16.8893C12.204 16.8893 11.6474 16.8024 11.1302 16.6373L9.97559 19.8874C10.8577 20.1633 11.7998 20.3132 12.7812 20.3132C17.0556 20.3132 20.6233 17.4585 21.4453 13.6653L17.8776 12.9766Z" fill="#9E9E9E"/>
<path d="M24.565 15.7683C24.4472 15.5901 24.2902 15.3055 24.1932 15.0948C23.6275 13.8608 23.6021 12.5833 24.0778 11.358C24.6019 10.0132 25.6041 8.98561 26.8996 8.45986C28.5276 7.80158 30.3264 7.92976 31.8874 8.80094C32.8781 9.33539 33.5801 10.161 34.1135 11.3298C34.1805 11.4797 34.2405 11.6383 34.3005 11.7751L24.565 15.7683ZM27.8163 10.4434C26.6594 10.9105 26.0637 11.9316 26.1884 13.1265L31.0838 11.1429C30.241 10.2131 29.1464 9.90459 27.8163 10.4434V10.4434ZM31.6935 14.758C31.6912 14.758 31.6912 14.7602 31.6912 14.7602L31.5896 14.695C31.2963 15.1404 30.8414 15.5032 30.2664 15.7378C29.1718 16.1854 28.1581 16.0702 27.4284 15.4685L27.3614 15.564C27.3614 15.564 27.3614 15.5619 27.3591 15.5619L26.1168 17.3108C26.4262 17.5128 26.7564 17.6823 27.1028 17.8191C28.4745 18.3558 29.8784 18.3297 31.2616 17.7648C32.2615 17.3564 33.0466 16.735 33.5824 15.9464L31.6935 14.758ZM37.702 5.88757V15.6075L39.3092 16.2202L38.397 18.2232L36.6236 17.528C36.2264 17.3651 35.9539 17.1174 35.7507 16.8372C35.5544 16.5525 35.4089 16.1593 35.4089 15.6336V5.88757H37.702ZM41.8631 13.133C41.8631 12.3052 42.2534 11.5622 42.8676 11.0582L41.2189 9.32887C40.1012 10.2587 39.3969 11.6165 39.3969 13.1286C39.3946 14.6429 40.0989 16.0029 41.2142 16.9327L42.8607 15.2034C42.2488 14.6972 41.8631 13.9585 41.8631 13.133V13.133ZM44.7912 15.8899C44.4679 15.8899 44.1538 15.8378 43.8629 15.7465L43.0755 17.9473C43.6135 18.1168 44.1885 18.2102 44.7889 18.2102C47.3983 18.2124 49.5758 16.47 50.0815 14.1562L47.6615 13.6913C47.3867 14.9492 46.2067 15.8921 44.7912 15.8899V15.8899ZM44.7981 8.05576C44.2 8.05576 43.625 8.14701 43.087 8.3143L43.8675 10.5172C44.1608 10.426 44.4725 10.376 44.7958 10.376C46.2136 10.3782 47.3959 11.3254 47.6638 12.5855L50.0838 12.1249C49.5874 9.80683 47.4098 8.05794 44.7981 8.05576V8.05576Z" fill="white"/>
</svg>
